<svg width="377" height="172" viewBox="0 0 377 172" fill="none" xmlns="http://www.w3.org/2000/svg">
<rect width="377" height="171" rx="9" fill="white" fill-opacity="0.04"/>
<rect x="0.5" y="0.5" width="376" height="170" rx="8.5" stroke="white" stroke-opacity="0.04"/>
<g clip-path="url(#clip0_2907_7730)">
<circle cx="28.1436" cy="28.1432" r="14" fill="white" fill-opacity="0.3"/>
<rect x="56.2871" y="23.6432" width="84" height="9" rx="4.5" fill="url(#paint0_linear_2907_7730)"/>
</g>
<mask id="path-7-inside-1_2907_7730" fill="white">
<path d="M0 56.2864H377V113.286H0V56.2864Z"/>
</mask>
<path d="M0 56.2864V57.465H377V56.2864V55.1078H0V56.2864ZM377 113.286V112.108H0V113.286V114.465H377V113.286Z" fill="white" fill-opacity="0.04" mask="url(#path-7-inside-1_2907_7730)"/>
<path d="M21.2139 91.0727C23.0492 89.1261 25.5409 87.9298 28.2855 87.9298C31.03 87.9298 33.5217 89.1261 35.357 91.0727M31.8213 81.2511C31.8213 83.2038 30.2382 84.7869 28.2855 84.7869C26.3327 84.7869 24.7497 83.2038 24.7497 81.2511C24.7497 79.2983 26.3327 77.7153 28.2855 77.7153C30.2382 77.7153 31.8213 79.2983 31.8213 81.2511Z" stroke="white" stroke-opacity="0.4" stroke-width="1.7679" stroke-linecap="round" stroke-linejoin="round"/>
<path d="M50.0196 90.7864L47.2774 81.7862H48.7305L50.6759 88.677H50.7696L52.6915 81.7862H54.1681L56.0666 88.6535H56.1604L58.1057 81.7862H59.5589L56.8166 90.7864H55.4572L53.4884 83.8722H53.3478L51.379 90.7864H50.0196ZM64.8544 90.9739C63.9872 90.9739 63.2391 90.7825 62.6102 90.3996C61.9852 90.0129 61.5028 89.4738 61.1629 88.7824C60.827 88.0871 60.659 87.2785 60.659 86.3566C60.659 85.4347 60.827 84.6222 61.1629 83.919C61.5028 83.212 61.9754 82.6612 62.5809 82.2667C63.1903 81.8682 63.9013 81.669 64.7138 81.669C65.1825 81.669 65.6455 81.7471 66.1025 81.9034C66.5595 82.0596 66.9756 82.3135 67.3506 82.6651C67.7256 83.0128 68.0244 83.4737 68.2471 84.0479C68.4697 84.6222 68.5811 85.3292 68.5811 86.1691V86.755H61.6434V85.5597H67.1748C67.1748 85.0519 67.0732 84.5987 66.8701 84.2003C66.6709 83.8018 66.3857 83.4874 66.0146 83.2569C65.6474 83.0264 65.2138 82.9112 64.7138 82.9112C64.163 82.9112 63.6864 83.0479 63.2841 83.3214C62.8856 83.5909 62.579 83.9425 62.3641 84.3761C62.1493 84.8097 62.0419 85.2745 62.0419 85.7706V86.5675C62.0419 87.2472 62.159 87.8234 62.3934 88.2961C62.6317 88.7648 62.9618 89.1223 63.3837 89.3684C63.8056 89.6106 64.2958 89.7317 64.8544 89.7317C65.2177 89.7317 65.5458 89.6809 65.8388 89.5793C66.1357 89.4738 66.3916 89.3176 66.6064 89.1106C66.8213 88.8996 66.9873 88.6379 67.1045 88.3254L68.4404 88.7004C68.2998 89.1535 68.0635 89.552 67.7314 89.8957C67.3994 90.2356 66.9892 90.5012 66.5009 90.6926C66.0126 90.8801 65.4638 90.9739 64.8544 90.9739ZM70.8721 90.7864V78.7861H72.255V83.2159H72.3722C72.4737 83.0596 72.6144 82.8604 72.7941 82.6182C72.9776 82.3721 73.2394 82.1534 73.5792 81.962C73.923 81.7666 74.3878 81.669 74.9738 81.669C75.7316 81.669 76.3996 81.8584 76.9777 82.2374C77.5559 82.6163 78.0071 83.1534 78.3313 83.8487C78.6555 84.544 78.8176 85.3644 78.8176 86.3097C78.8176 87.2629 78.6555 88.089 78.3313 88.7883C78.0071 89.4836 77.5578 90.0227 76.9836 90.4055C76.4094 90.7844 75.7472 90.9739 74.9972 90.9739C74.4191 90.9739 73.9562 90.8782 73.6085 90.6868C73.2609 90.4914 72.9933 90.2707 72.8058 90.0246C72.6183 89.7746 72.4737 89.5676 72.3722 89.4035H72.2081V90.7864H70.8721ZM72.2315 86.2863C72.2315 86.966 72.3311 87.5656 72.5304 88.0851C72.7296 88.6008 73.0206 89.0051 73.4034 89.2981C73.7863 89.5871 74.255 89.7317 74.8097 89.7317C75.3879 89.7317 75.8703 89.5793 76.257 89.2746C76.6477 88.966 76.9406 88.552 77.1359 88.0324C77.3352 87.509 77.4348 86.9269 77.4348 86.2863C77.4348 85.6534 77.3371 85.0831 77.1418 84.5753C76.9504 84.0636 76.6594 83.6593 76.2687 83.3624C75.882 83.0616 75.3957 82.9112 74.8097 82.9112C74.2472 82.9112 73.7745 83.0538 73.3917 83.3389C73.0089 83.6202 72.7198 84.0147 72.5245 84.5226C72.3292 85.0265 72.2315 85.6144 72.2315 86.2863ZM84.9408 81.7862V82.9581H80.0891V81.7862H84.9408ZM81.5423 90.7864V80.544C81.5423 80.0283 81.6634 79.5986 81.9056 79.2549C82.1478 78.9111 82.4622 78.6533 82.849 78.4814C83.2357 78.3095 83.6439 78.2236 84.0736 78.2236C84.4135 78.2236 84.6908 78.2509 84.9057 78.3056C85.1205 78.3603 85.2807 78.4111 85.3861 78.458L84.9877 79.6533C84.9174 79.6299 84.8197 79.6006 84.6947 79.5654C84.5736 79.5303 84.4135 79.5127 84.2142 79.5127C83.7572 79.5127 83.4271 79.6279 83.224 79.8584C83.0248 80.0889 82.9251 80.4268 82.9251 80.8721V90.7864H81.5423ZM88.2617 78.7861V90.7864H86.8788V78.7861H88.2617ZM94.4508 90.9739C93.6383 90.9739 92.9254 90.7805 92.3121 90.3938C91.7027 90.0071 91.2261 89.466 90.8824 88.7707C90.5425 88.0754 90.3726 87.2629 90.3726 86.3332C90.3726 85.3956 90.5425 84.5773 90.8824 83.878C91.2261 83.1788 91.7027 82.6358 92.3121 82.2491C92.9254 81.8623 93.6383 81.669 94.4508 81.669C95.2633 81.669 95.9743 81.8623 96.5837 82.2491C97.197 82.6358 97.6735 83.1788 98.0134 83.878C98.3571 84.5773 98.529 85.3956 98.529 86.3332C98.529 87.2629 98.3571 88.0754 98.0134 88.7707C97.6735 89.466 97.197 90.0071 96.5837 90.3938C95.9743 90.7805 95.2633 90.9739 94.4508 90.9739ZM94.4508 89.7317C95.068 89.7317 95.5758 89.5735 95.9743 89.257C96.3727 88.9406 96.6676 88.5246 96.8591 88.009C97.0505 87.4933 97.1462 86.9347 97.1462 86.3332C97.1462 85.7316 97.0505 85.171 96.8591 84.6515C96.6676 84.1319 96.3727 83.712 95.9743 83.3917C95.5758 83.0714 95.068 82.9112 94.4508 82.9112C93.8336 82.9112 93.3258 83.0714 92.9273 83.3917C92.5289 83.712 92.2339 84.1319 92.0425 84.6515C91.8511 85.171 91.7554 85.7316 91.7554 86.3332C91.7554 86.9347 91.8511 87.4933 92.0425 88.009C92.2339 88.5246 92.5289 88.9406 92.9273 89.257C93.3258 89.5735 93.8336 89.7317 94.4508 89.7317ZM102.373 90.7864L99.6306 81.7862H101.084L103.029 88.677H103.123L105.045 81.7862H106.521L108.42 88.6535H108.514L110.459 81.7862H111.912L109.17 90.7864H107.81L105.842 83.8722H105.701L103.732 90.7864H102.373ZM113.74 94.1615V81.7862H115.076V83.2159H115.24C115.342 83.0596 115.483 82.8604 115.662 82.6182C115.846 82.3721 116.108 82.1534 116.447 81.962C116.791 81.7666 117.256 81.669 117.842 81.669C118.6 81.669 119.268 81.8584 119.846 82.2374C120.424 82.6163 120.875 83.1534 121.199 83.8487C121.524 84.544 121.686 85.3644 121.686 86.3097C121.686 87.2629 121.524 88.089 121.199 88.7883C120.875 89.4836 120.426 90.0227 119.852 90.4055C119.278 90.7844 118.615 90.9739 117.865 90.9739C117.287 90.9739 116.824 90.8782 116.477 90.6868C116.129 90.4914 115.861 90.2707 115.674 90.0246C115.486 89.7746 115.342 89.5676 115.24 89.4035H115.123V94.1615H113.74ZM115.1 86.2863C115.1 86.966 115.199 87.5656 115.399 88.0851C115.598 88.6008 115.889 89.0051 116.272 89.2981C116.654 89.5871 117.123 89.7317 117.678 89.7317C118.256 89.7317 118.738 89.5793 119.125 89.2746C119.516 88.966 119.809 88.552 120.004 88.0324C120.203 87.509 120.303 86.9269 120.303 86.2863C120.303 85.6534 120.205 85.0831 120.01 84.5753C119.819 84.0636 119.528 83.6593 119.137 83.3624C118.75 83.0616 118.264 82.9112 117.678 82.9112C117.115 82.9112 116.643 83.0538 116.26 83.3389C115.877 83.6202 115.588 84.0147 115.393 84.5226C115.197 85.0265 115.1 85.6144 115.1 86.2863ZM123.795 90.7864V81.7862H125.131V83.1456H125.225C125.389 82.7003 125.686 82.3389 126.116 82.0616C126.545 81.7842 127.03 81.6455 127.569 81.6455C127.67 81.6455 127.797 81.6475 127.95 81.6514C128.102 81.6553 128.217 81.6612 128.295 81.669V83.0753C128.248 83.0635 128.141 83.046 127.973 83.0225C127.809 82.9952 127.635 82.9815 127.452 82.9815C127.014 82.9815 126.623 83.0733 126.28 83.2569C125.94 83.4366 125.67 83.6866 125.471 84.0069C125.276 84.3233 125.178 84.6847 125.178 85.0909V90.7864H123.795ZM133.317 90.9739C132.504 90.9739 131.791 90.7805 131.178 90.3938C130.569 90.0071 130.092 89.466 129.748 88.7707C129.409 88.0754 129.239 87.2629 129.239 86.3332C129.239 85.3956 129.409 84.5773 129.748 83.878C130.092 83.1788 130.569 82.6358 131.178 82.2491C131.791 81.8623 132.504 81.669 133.317 81.669C134.129 81.669 134.84 81.8623 135.45 82.2491C136.063 82.6358 136.54 83.1788 136.879 83.878C137.223 84.5773 137.395 85.3956 137.395 86.3332C137.395 87.2629 137.223 88.0754 136.879 88.7707C136.54 89.466 136.063 90.0071 135.45 90.3938C134.84 90.7805 134.129 90.9739 133.317 90.9739ZM133.317 89.7317C133.934 89.7317 134.442 89.5735 134.84 89.257C135.239 88.9406 135.534 88.5246 135.725 88.009C135.917 87.4933 136.012 86.9347 136.012 86.3332C136.012 85.7316 135.917 85.171 135.725 84.6515C135.534 84.1319 135.239 83.712 134.84 83.3917C134.442 83.0714 133.934 82.9112 133.317 82.9112C132.7 82.9112 132.192 83.0714 131.793 83.3917C131.395 83.712 131.1 84.1319 130.909 84.6515C130.717 85.171 130.622 85.7316 130.622 86.3332C130.622 86.9347 130.717 87.4933 130.909 88.009C131.1 88.5246 131.395 88.9406 131.793 89.257C132.192 89.5735 132.7 89.7317 133.317 89.7317ZM142.155 90.9973C141.584 90.9973 141.067 90.8899 140.602 90.675C140.137 90.4563 139.768 90.1418 139.494 89.7317C139.221 89.3176 139.084 88.8176 139.084 88.2316C139.084 87.716 139.186 87.298 139.389 86.9777C139.592 86.6535 139.863 86.3996 140.203 86.216C140.543 86.0324 140.918 85.8956 141.328 85.8058C141.742 85.712 142.158 85.6378 142.576 85.5831C143.123 85.5128 143.567 85.4601 143.907 85.4249C144.25 85.3859 144.5 85.3214 144.657 85.2316C144.817 85.1417 144.897 84.9855 144.897 84.7628V84.7159C144.897 84.1378 144.739 83.6886 144.422 83.3682C144.11 83.0479 143.635 82.8878 142.998 82.8878C142.338 82.8878 141.821 83.0323 141.446 83.3214C141.071 83.6104 140.807 83.919 140.654 84.2472L139.342 83.7784C139.576 83.2315 139.889 82.8057 140.279 82.501C140.674 82.1924 141.104 81.9776 141.569 81.8565C142.037 81.7315 142.498 81.669 142.951 81.669C143.24 81.669 143.573 81.7041 143.948 81.7745C144.326 81.8409 144.692 81.9795 145.043 82.1905C145.399 82.4014 145.694 82.7198 145.928 83.1456C146.162 83.5714 146.28 84.1417 146.28 84.8566V90.7864H144.897V89.5676H144.826C144.733 89.7629 144.576 89.9719 144.358 90.1946C144.139 90.4172 143.848 90.6067 143.485 90.7629C143.121 90.9192 142.678 90.9973 142.155 90.9973ZM142.365 89.7551C142.912 89.7551 143.373 89.6477 143.748 89.4328C144.127 89.218 144.412 88.9406 144.604 88.6008C144.799 88.2609 144.897 87.9035 144.897 87.5285V86.2628C144.838 86.3332 144.709 86.3976 144.51 86.4562C144.315 86.5109 144.088 86.5597 143.83 86.6027C143.576 86.6418 143.328 86.6769 143.086 86.7082C142.848 86.7355 142.655 86.7589 142.506 86.7785C142.147 86.8253 141.811 86.9015 141.498 87.007C141.19 87.1086 140.94 87.2629 140.748 87.4699C140.561 87.673 140.467 87.9504 140.467 88.3019C140.467 88.7824 140.645 89.1457 141 89.3918C141.36 89.634 141.815 89.7551 142.365 89.7551ZM152.46 90.9739C151.616 90.9739 150.89 90.7747 150.28 90.3762C149.671 89.9778 149.202 89.4289 148.874 88.7297C148.546 88.0305 148.382 87.2316 148.382 86.3332C148.382 85.4191 148.55 84.6124 148.886 83.9132C149.225 83.21 149.698 82.6612 150.304 82.2667C150.913 81.8682 151.624 81.669 152.436 81.669C153.069 81.669 153.64 81.7862 154.147 82.0206C154.655 82.2549 155.071 82.5831 155.396 83.0049C155.72 83.4268 155.921 83.919 155.999 84.4815H154.616C154.511 84.0714 154.276 83.7081 153.913 83.3917C153.554 83.0714 153.069 82.9112 152.46 82.9112C151.921 82.9112 151.448 83.0518 151.042 83.3331C150.64 83.6104 150.325 84.003 150.099 84.5108C149.876 85.0148 149.765 85.6066 149.765 86.2863C149.765 86.9816 149.874 87.5871 150.093 88.1027C150.315 88.6184 150.628 89.0188 151.03 89.3039C151.436 89.5891 151.913 89.7317 152.46 89.7317C152.819 89.7317 153.145 89.6692 153.438 89.5442C153.731 89.4192 153.979 89.2395 154.183 89.0051C154.386 88.7707 154.53 88.4894 154.616 88.1613H155.999C155.921 88.6926 155.728 89.1711 155.419 89.5969C155.114 90.0188 154.71 90.3547 154.206 90.6047C153.706 90.8508 153.124 90.9739 152.46 90.9739ZM161.677 90.9739C160.833 90.9739 160.107 90.7747 159.497 90.3762C158.888 89.9778 158.419 89.4289 158.091 88.7297C157.763 88.0305 157.599 87.2316 157.599 86.3332C157.599 85.4191 157.767 84.6124 158.103 83.9132C158.442 83.21 158.915 82.6612 159.521 82.2667C160.13 81.8682 160.841 81.669 161.653 81.669C162.286 81.669 162.857 81.7862 163.364 82.0206C163.872 82.2549 164.288 82.5831 164.613 83.0049C164.937 83.4268 165.138 83.919 165.216 84.4815H163.833C163.728 84.0714 163.493 83.7081 163.13 83.3917C162.771 83.0714 162.286 82.9112 161.677 82.9112C161.138 82.9112 160.665 83.0518 160.259 83.3331C159.857 83.6104 159.542 84.003 159.316 84.5108C159.093 85.0148 158.982 85.6066 158.982 86.2863C158.982 86.9816 159.091 87.5871 159.31 88.1027C159.532 88.6184 159.845 89.0188 160.247 89.3039C160.653 89.5891 161.13 89.7317 161.677 89.7317C162.036 89.7317 162.362 89.6692 162.655 89.5442C162.948 89.4192 163.196 89.2395 163.4 89.0051C163.603 88.7707 163.747 88.4894 163.833 88.1613H165.216C165.138 88.6926 164.945 89.1711 164.636 89.5969C164.331 90.0188 163.927 90.3547 163.423 90.6047C162.923 90.8508 162.341 90.9739 161.677 90.9739ZM170.894 90.9739C170.081 90.9739 169.369 90.7805 168.755 90.3938C168.146 90.0071 167.669 89.466 167.326 88.7707C166.986 88.0754 166.816 87.2629 166.816 86.3332C166.816 85.3956 166.986 84.5773 167.326 83.878C167.669 83.1788 168.146 82.6358 168.755 82.2491C169.369 81.8623 170.081 81.669 170.894 81.669C171.706 81.669 172.417 81.8623 173.027 82.2491C173.64 82.6358 174.117 83.1788 174.457 83.878C174.8 84.5773 174.972 85.3956 174.972 86.3332C174.972 87.2629 174.8 88.0754 174.457 88.7707C174.117 89.466 173.64 90.0071 173.027 90.3938C172.417 90.7805 171.706 90.9739 170.894 90.9739ZM170.894 89.7317C171.511 89.7317 172.019 89.5735 172.417 89.257C172.816 88.9406 173.111 88.5246 173.302 88.009C173.494 87.4933 173.589 86.9347 173.589 86.3332C173.589 85.7316 173.494 85.171 173.302 84.6515C173.111 84.1319 172.816 83.712 172.417 83.3917C172.019 83.0714 171.511 82.9112 170.894 82.9112C170.277 82.9112 169.769 83.0714 169.37 83.3917C168.972 83.712 168.677 84.1319 168.486 84.6515C168.294 85.171 168.199 85.7316 168.199 86.3332C168.199 86.9347 168.294 87.4933 168.486 88.009C168.677 88.5246 168.972 88.9406 169.37 89.257C169.769 89.5735 170.277 89.7317 170.894 89.7317ZM182.755 87.1066V81.7862H184.138V90.7864H182.755V89.2629H182.661C182.45 89.7199 182.122 90.1086 181.677 90.4289C181.232 90.7454 180.669 90.9036 179.989 90.9036C179.427 90.9036 178.927 90.7805 178.489 90.5344C178.052 90.2844 177.708 89.9094 177.458 89.4094C177.208 88.9055 177.083 88.2707 177.083 87.5051V81.7862H178.466V87.4113C178.466 88.0676 178.649 88.591 179.017 88.9816C179.388 89.3723 179.86 89.5676 180.435 89.5676C180.778 89.5676 181.128 89.4797 181.484 89.3039C181.843 89.1281 182.144 88.8586 182.386 88.4953C182.632 88.132 182.755 87.6691 182.755 87.1066ZM188.054 85.3722V90.7864H186.671V81.7862H188.007V83.1925H188.124C188.335 82.7354 188.655 82.3682 189.085 82.0909C189.514 81.8096 190.069 81.669 190.749 81.669C191.358 81.669 191.891 81.794 192.349 82.044C192.806 82.2901 193.161 82.6651 193.415 83.169C193.669 83.669 193.796 84.3019 193.796 85.0675V90.7864H192.413V85.1612C192.413 84.4542 192.229 83.9034 191.862 83.5089C191.495 83.1104 190.991 82.9112 190.35 82.9112C189.909 82.9112 189.514 83.0069 189.167 83.1983C188.823 83.3897 188.552 83.669 188.352 84.0362C188.153 84.4034 188.054 84.8487 188.054 85.3722ZM200.237 81.7862V82.9581H195.573V81.7862H200.237ZM196.932 79.6299H198.315V88.2082C198.315 88.5988 198.372 88.8918 198.485 89.0871C198.602 89.2785 198.751 89.4074 198.93 89.4738C199.114 89.5363 199.307 89.5676 199.51 89.5676C199.663 89.5676 199.788 89.5598 199.885 89.5442C199.983 89.5246 200.061 89.509 200.12 89.4973L200.401 90.7395C200.307 90.7747 200.176 90.8098 200.008 90.845C199.84 90.884 199.628 90.9036 199.37 90.9036C198.979 90.9036 198.596 90.8196 198.221 90.6516C197.85 90.4836 197.542 90.2278 197.295 89.884C197.053 89.5403 196.932 89.1067 196.932 88.5832V79.6299Z" fill="url(#paint1_linear_2907_7730)"/>
<path d="M345.177 77.7153H350.756C352.516 77.7153 353.396 77.7153 354.069 78.0578C354.66 78.3592 355.141 78.84 355.442 79.4313C355.785 80.1036 355.785 80.9838 355.785 82.744V88.3227M344.156 91.8585H350.52C351.4 91.8585 351.841 91.8585 352.177 91.6872C352.472 91.5365 352.713 91.2961 352.863 91.0004C353.035 90.6643 353.035 90.2242 353.035 89.3441V82.9797C353.035 82.0996 353.035 81.6595 352.863 81.3234C352.713 81.0277 352.472 80.7873 352.177 80.6366C351.841 80.4653 351.4 80.4653 350.52 80.4653H344.156C343.276 80.4653 342.836 80.4653 342.5 80.6366C342.204 80.7873 341.964 81.0277 341.813 81.3234C341.642 81.6595 341.642 82.0996 341.642 82.9797V89.3441C341.642 90.2242 341.642 90.6643 341.813 91.0004C341.964 91.2961 342.204 91.5365 342.5 91.6872C342.836 91.8585 343.276 91.8585 344.156 91.8585Z" stroke="white" stroke-opacity="0.32" stroke-width="1.1786" stroke-linecap="round" stroke-linejoin="round"/>
<path d="M32.2145 141.642V139.285C32.2145 137.115 30.4556 135.356 28.2859 135.356C26.1161 135.356 24.3572 137.115 24.3572 139.285V141.642M25.7715 149.499H30.8002C32.1204 149.499 32.7804 149.499 33.2847 149.243C33.7282 149.017 34.0888 148.656 34.3148 148.212C34.5717 147.708 34.5717 147.048 34.5717 145.728V145.414C34.5717 144.093 34.5717 143.433 34.3148 142.929C34.0888 142.486 33.7282 142.125 33.2847 141.899C32.7804 141.642 32.1204 141.642 30.8002 141.642H25.7715C24.4514 141.642 23.7913 141.642 23.2871 141.899C22.8435 142.125 22.4829 142.486 22.2569 142.929C22 143.433 22 144.093 22 145.414V145.728C22 147.048 22 147.708 22.2569 148.212C22.4829 148.656 22.8435 149.017 23.2871 149.243C23.7913 149.499 24.4514 149.499 25.7715 149.499Z" stroke="white" stroke-opacity="0.4" stroke-width="1.7679" stroke-linecap="round" stroke-linejoin="round"/>
<path d="M50.3556 146.226C49.8829 146.226 49.4513 146.11 49.0606 145.88C48.67 145.646 48.3575 145.333 48.1231 144.942C47.8926 144.552 47.7774 144.12 47.7774 143.647C47.7774 143.171 47.8926 142.739 48.1231 142.353C48.3575 141.962 48.67 141.651 49.0606 141.421C49.4513 141.186 49.8829 141.069 50.3556 141.069C50.8321 141.069 51.2638 141.186 51.6505 141.421C52.0412 141.651 52.3517 141.962 52.5822 142.353C52.8166 142.739 52.9338 143.171 52.9338 143.647C52.9338 144.12 52.8166 144.552 52.5822 144.942C52.3517 145.333 52.0412 145.646 51.6505 145.88C51.2638 146.11 50.8321 146.226 50.3556 146.226ZM59.637 146.226C59.1644 146.226 58.7327 146.11 58.3421 145.88C57.9515 145.646 57.6389 145.333 57.4046 144.942C57.1741 144.552 57.0589 144.12 57.0589 143.647C57.0589 143.171 57.1741 142.739 57.4046 142.353C57.6389 141.962 57.9515 141.651 58.3421 141.421C58.7327 141.186 59.1644 141.069 59.637 141.069C60.1136 141.069 60.5453 141.186 60.932 141.421C61.3226 141.651 61.6332 141.962 61.8636 142.353C62.098 142.739 62.2152 143.171 62.2152 143.647C62.2152 144.12 62.098 144.552 61.8636 144.942C61.6332 145.333 61.3226 145.646 60.932 145.88C60.5453 146.11 60.1136 146.226 59.637 146.226ZM68.9185 146.226C68.4458 146.226 68.0142 146.11 67.6235 145.88C67.2329 145.646 66.9204 145.333 66.686 144.942C66.4556 144.552 66.3403 144.12 66.3403 143.647C66.3403 143.171 66.4556 142.739 66.686 142.353C66.9204 141.962 67.2329 141.651 67.6235 141.421C68.0142 141.186 68.4458 141.069 68.9185 141.069C69.3951 141.069 69.8267 141.186 70.2134 141.421C70.6041 141.651 70.9146 141.962 71.1451 142.353C71.3795 142.739 71.4967 143.171 71.4967 143.647C71.4967 144.12 71.3795 144.552 71.1451 144.942C70.9146 145.333 70.6041 145.646 70.2134 145.88C69.8267 146.11 69.3951 146.226 68.9185 146.226ZM78.2 146.226C77.7273 146.226 77.2956 146.11 76.905 145.88C76.5144 145.646 76.2019 145.333 75.9675 144.942C75.737 144.552 75.6218 144.12 75.6218 143.647C75.6218 143.171 75.737 142.739 75.9675 142.353C76.2019 141.962 76.5144 141.651 76.905 141.421C77.2956 141.186 77.7273 141.069 78.2 141.069C78.6765 141.069 79.1082 141.186 79.4949 141.421C79.8855 141.651 80.1961 141.962 80.4266 142.353C80.661 142.739 80.7781 143.171 80.7781 143.647C80.7781 144.12 80.661 144.552 80.4266 144.942C80.1961 145.333 79.8855 145.646 79.4949 145.88C79.1082 146.11 78.6765 146.226 78.2 146.226ZM87.4814 146.226C87.0088 146.226 86.5771 146.11 86.1865 145.88C85.7958 145.646 85.4833 145.333 85.2489 144.942C85.0185 144.552 84.9032 144.12 84.9032 143.647C84.9032 143.171 85.0185 142.739 85.2489 142.353C85.4833 141.962 85.7958 141.651 86.1865 141.421C86.5771 141.186 87.0088 141.069 87.4814 141.069C87.958 141.069 88.3896 141.186 88.7764 141.421C89.167 141.651 89.4776 141.962 89.708 142.353C89.9424 142.739 90.0596 143.171 90.0596 143.647C90.0596 144.12 89.9424 144.552 89.708 144.942C89.4776 145.333 89.167 145.646 88.7764 145.88C88.3896 146.11 87.958 146.226 87.4814 146.226ZM96.7629 146.226C96.2902 146.226 95.8586 146.11 95.4679 145.88C95.0773 145.646 94.7648 145.333 94.5304 144.942C94.2999 144.552 94.1847 144.12 94.1847 143.647C94.1847 143.171 94.2999 142.739 94.5304 142.353C94.7648 141.962 95.0773 141.651 95.4679 141.421C95.8586 141.186 96.2902 141.069 96.7629 141.069C97.2395 141.069 97.6711 141.186 98.0578 141.421C98.4485 141.651 98.759 141.962 98.9895 142.353C99.2239 142.739 99.3411 143.171 99.3411 143.647C99.3411 144.12 99.2239 144.552 98.9895 144.942C98.759 145.333 98.4485 145.646 98.0578 145.88C97.6711 146.11 97.2395 146.226 96.7629 146.226ZM106.044 146.226C105.572 146.226 105.14 146.11 104.749 145.88C104.359 145.646 104.046 145.333 103.812 144.942C103.581 144.552 103.466 144.12 103.466 143.647C103.466 143.171 103.581 142.739 103.812 142.353C104.046 141.962 104.359 141.651 104.749 141.421C105.14 141.186 105.572 141.069 106.044 141.069C106.521 141.069 106.953 141.186 107.339 141.421C107.73 141.651 108.04 141.962 108.271 142.353C108.505 142.739 108.623 143.171 108.623 143.647C108.623 144.12 108.505 144.552 108.271 144.942C108.04 145.333 107.73 145.646 107.339 145.88C106.953 146.11 106.521 146.226 106.044 146.226ZM115.326 146.226C114.853 146.226 114.421 146.11 114.031 145.88C113.64 145.646 113.328 145.333 113.093 144.942C112.863 144.552 112.748 144.12 112.748 143.647C112.748 143.171 112.863 142.739 113.093 142.353C113.328 141.962 113.64 141.651 114.031 141.421C114.421 141.186 114.853 141.069 115.326 141.069C115.802 141.069 116.234 141.186 116.621 141.421C117.011 141.651 117.322 141.962 117.552 142.353C117.787 142.739 117.904 143.171 117.904 143.647C117.904 144.12 117.787 144.552 117.552 144.942C117.322 145.333 117.011 145.646 116.621 145.88C116.234 146.11 115.802 146.226 115.326 146.226ZM124.607 146.226C124.135 146.226 123.703 146.11 123.312 145.88C122.922 145.646 122.609 145.333 122.375 144.942C122.144 144.552 122.029 144.12 122.029 143.647C122.029 143.171 122.144 142.739 122.375 142.353C122.609 141.962 122.922 141.651 123.312 141.421C123.703 141.186 124.135 141.069 124.607 141.069C125.084 141.069 125.515 141.186 125.902 141.421C126.293 141.651 126.603 141.962 126.834 142.353C127.068 142.739 127.185 143.171 127.185 143.647C127.185 144.12 127.068 144.552 126.834 144.942C126.603 145.333 126.293 145.646 125.902 145.88C125.515 146.11 125.084 146.226 124.607 146.226ZM133.889 146.226C133.416 146.226 132.984 146.11 132.594 145.88C132.203 145.646 131.891 145.333 131.656 144.942C131.426 144.552 131.311 144.12 131.311 143.647C131.311 143.171 131.426 142.739 131.656 142.353C131.891 141.962 132.203 141.651 132.594 141.421C132.984 141.186 133.416 141.069 133.889 141.069C134.365 141.069 134.797 141.186 135.184 141.421C135.574 141.651 135.885 141.962 136.115 142.353C136.35 142.739 136.467 143.171 136.467 143.647C136.467 144.12 136.35 144.552 136.115 144.942C135.885 145.333 135.574 145.646 135.184 145.88C134.797 146.11 134.365 146.226 133.889 146.226ZM143.17 146.226C142.698 146.226 142.266 146.11 141.875 145.88C141.485 145.646 141.172 145.333 140.938 144.942C140.707 144.552 140.592 144.12 140.592 143.647C140.592 143.171 140.707 142.739 140.938 142.353C141.172 141.962 141.485 141.651 141.875 141.421C142.266 141.186 142.698 141.069 143.17 141.069C143.647 141.069 144.078 141.186 144.465 141.421C144.856 141.651 145.166 141.962 145.397 142.353C145.631 142.739 145.748 143.171 145.748 143.647C145.748 144.12 145.631 144.552 145.397 144.942C145.166 145.333 144.856 145.646 144.465 145.88C144.078 146.11 143.647 146.226 143.17 146.226ZM152.452 146.226C151.979 146.226 151.547 146.11 151.157 145.88C150.766 145.646 150.454 145.333 150.219 144.942C149.989 144.552 149.873 144.12 149.873 143.647C149.873 143.171 149.989 142.739 150.219 142.353C150.454 141.962 150.766 141.651 151.157 141.421C151.547 141.186 151.979 141.069 152.452 141.069C152.928 141.069 153.36 141.186 153.747 141.421C154.137 141.651 154.448 141.962 154.678 142.353C154.913 142.739 155.03 143.171 155.03 143.647C155.03 144.12 154.913 144.552 154.678 144.942C154.448 145.333 154.137 145.646 153.747 145.88C153.36 146.11 152.928 146.226 152.452 146.226ZM161.733 146.226C161.26 146.226 160.829 146.11 160.438 145.88C160.048 145.646 159.735 145.333 159.501 144.942C159.27 144.552 159.155 144.12 159.155 143.647C159.155 143.171 159.27 142.739 159.501 142.353C159.735 141.962 160.048 141.651 160.438 141.421C160.829 141.186 161.26 141.069 161.733 141.069C162.21 141.069 162.641 141.186 163.028 141.421C163.419 141.651 163.729 141.962 163.96 142.353C164.194 142.739 164.311 143.171 164.311 143.647C164.311 144.12 164.194 144.552 163.96 144.942C163.729 145.333 163.419 145.646 163.028 145.88C162.641 146.11 162.21 146.226 161.733 146.226ZM171.015 146.226C170.542 146.226 170.11 146.11 169.72 145.88C169.329 145.646 169.016 145.333 168.782 144.942C168.552 144.552 168.436 144.12 168.436 143.647C168.436 143.171 168.552 142.739 168.782 142.353C169.016 141.962 169.329 141.651 169.72 141.421C170.11 141.186 170.542 141.069 171.015 141.069C171.491 141.069 171.923 141.186 172.31 141.421C172.7 141.651 173.011 141.962 173.241 142.353C173.476 142.739 173.593 143.171 173.593 143.647C173.593 144.12 173.476 144.552 173.241 144.942C173.011 145.333 172.7 145.646 172.31 145.88C171.923 146.11 171.491 146.226 171.015 146.226ZM180.296 146.226C179.823 146.226 179.392 146.11 179.001 145.88C178.61 145.646 178.298 145.333 178.064 144.942C177.833 144.552 177.718 144.12 177.718 143.647C177.718 143.171 177.833 142.739 178.064 142.353C178.298 141.962 178.61 141.651 179.001 141.421C179.392 141.186 179.823 141.069 180.296 141.069C180.773 141.069 181.204 141.186 181.591 141.421C181.982 141.651 182.292 141.962 182.523 142.353C182.757 142.739 182.874 143.171 182.874 143.647C182.874 144.12 182.757 144.552 182.523 144.942C182.292 145.333 181.982 145.646 181.591 145.88C181.204 146.11 180.773 146.226 180.296 146.226Z" fill="url(#paint2_linear_2907_7730)"/>
<path d="M345.177 135.928H350.756C352.516 135.928 353.396 135.928 354.069 136.271C354.66 136.572 355.141 137.053 355.442 137.644C355.785 138.317 355.785 139.197 355.785 140.957V146.536M344.156 150.072H350.52C351.4 150.072 351.841 150.072 352.177 149.9C352.472 149.75 352.713 149.509 352.863 149.214C353.035 148.877 353.035 148.437 353.035 147.557V141.193C353.035 140.313 353.035 139.873 352.863 139.537C352.713 139.241 352.472 139 352.177 138.85C351.841 138.678 351.4 138.678 350.52 138.678H344.156C343.276 138.678 342.836 138.678 342.5 138.85C342.204 139 341.964 139.241 341.813 139.537C341.642 139.873 341.642 140.313 341.642 141.193V147.557C341.642 148.437 341.642 148.877 341.813 149.214C341.964 149.509 342.204 149.75 342.5 149.9C342.836 150.072 343.276 150.072 344.156 150.072Z" stroke="white" stroke-opacity="0.32" stroke-width="1.1786" stroke-linecap="round" stroke-linejoin="round"/>
<defs>
<linearGradient id="paint0_linear_2907_7730" x1="56.2871" y1="23.6432" x2="140.287" y2="23.6432" gradientUnits="userSpaceOnUse">
<stop stop-color="white" stop-opacity="0.4"/>
<stop offset="1" stop-color="white" stop-opacity="0"/>
</linearGradient>
<linearGradient id="paint1_linear_2907_7730" x1="46.7148" y1="74.7864" x2="201.715" y2="74.7864" gradientUnits="userSpaceOnUse">
<stop stop-color="white" stop-opacity="0.4"/>
<stop offset="1" stop-color="white" stop-opacity="0"/>
</linearGradient>
<linearGradient id="paint2_linear_2907_7730" x1="45.7148" y1="132.429" x2="185.715" y2="132.429" gradientUnits="userSpaceOnUse">
<stop stop-color="white" stop-opacity="0.4"/>
<stop offset="1" stop-color="white" stop-opacity="0"/>
</linearGradient>
<clipPath id="clip0_2907_7730">
<path d="M14.1436 18.8576C14.1436 16.2539 16.2543 14.1432 18.8579 14.1432H135.429C138.033 14.1432 140.144 16.2539 140.144 18.8576V37.4288C140.144 40.0325 138.033 42.1432 135.429 42.1432H18.8579C16.2543 42.1432 14.1436 40.0325 14.1436 37.4288V18.8576Z" fill="white"/>
</clipPath>
</defs>
</svg>
